<?xml version="1.0" encoding="iso-8859-1"?>
<!-- Generator: Adobe Illustrator 17.1.0, SVG Export Plug-In . SVG Version: 6.00 Build 0)  -->
<!DOCTYPE svg PUBLIC "-//W3C//DTD SVG 1.1//EN" "http://www.w3.org/Graphics/SVG/1.1/DTD/svg11.dtd">
<svg version="1.1" id="Layer_1" xmlns="http://www.w3.org/2000/svg" xmlns:xlink="http://www.w3.org/1999/xlink" x="0px" y="0px"
	 viewBox="0 0 414 92.064" style="enable-background:new 0 0 414 92.064;" xml:space="preserve">
<rect x="0" y="1.324" style="fill:#FFFFFF;" width="351.077" height="89.436"/>
<g>
	<g>
		<rect x="246.112" y="0" style="fill:#00A1E4;" width="167.888" height="92.064"/>
		<g>
			<g>
				<g>
					<path style="fill:#FFFFFF;" d="M269.344,39.303h9.591c1.012,0,1.816,0.14,2.407,0.42c0.594,0.281,1.032,0.635,1.321,1.066
						c0.285,0.431,0.449,0.909,0.49,1.436c0.039,0.527,0.012,1.035-0.079,1.528c-0.32,1.572-0.964,2.792-1.928,3.66
						c-0.967,0.869-2.238,1.303-3.808,1.303h-6.015l-1.061,5.229h-3.875L269.344,39.303z M271.861,46.049h4.156
						c0.294,0,0.595-0.013,0.909-0.04c0.313-0.029,0.607-0.104,0.88-0.226c0.272-0.123,0.516-0.32,0.728-0.595
						c0.213-0.273,0.372-0.657,0.479-1.149c0.094-0.478,0.104-0.854,0.03-1.128c-0.072-0.273-0.199-0.482-0.379-0.625
						c-0.179-0.144-0.399-0.232-0.658-0.267c-0.263-0.034-0.531-0.051-0.81-0.051h-4.516L271.861,46.049z"/>
					<path style="fill:#FFFFFF;" d="M285.991,39.303h10.369c0.986,0,1.755,0.136,2.312,0.41c0.551,0.274,0.95,0.612,1.196,1.015
						c0.248,0.403,0.381,0.838,0.401,1.302c0.02,0.465-0.011,0.882-0.091,1.251c-0.187,0.903-0.519,1.642-1,2.215
						c-0.479,0.574-1.157,1.012-2.038,1.312l-0.02,0.042c0.414,0.068,0.719,0.243,0.921,0.522c0.2,0.281,0.33,0.612,0.389,0.996
						c0.059,0.382,0.07,0.789,0.031,1.219c-0.041,0.43-0.094,0.823-0.161,1.179c-0.039,0.178-0.084,0.41-0.129,0.697
						c-0.046,0.288-0.074,0.585-0.081,0.894c-0.006,0.307,0.011,0.603,0.052,0.892c0.04,0.287,0.125,0.52,0.259,0.697h-4.236
						c-0.068-0.163-0.111-0.331-0.131-0.502c-0.02-0.171-0.02-0.362,0-0.574c0.02-0.213,0.057-0.458,0.111-0.738
						c0.054-0.281,0.12-0.613,0.199-0.994c0.105-0.507,0.143-0.928,0.111-1.262c-0.035-0.335-0.125-0.597-0.269-0.789
						c-0.149-0.192-0.34-0.324-0.579-0.4c-0.242-0.074-0.509-0.113-0.8-0.113h-4.817l-1.08,5.372h-3.876L285.991,39.303z
						 M288.548,45.783h5.137c0.211,0,0.436-0.034,0.669-0.103c0.231-0.068,0.455-0.174,0.668-0.318
						c0.213-0.143,0.401-0.335,0.56-0.574c0.161-0.239,0.273-0.53,0.34-0.871c0.079-0.369,0.079-0.67,0-0.902
						c-0.08-0.232-0.207-0.417-0.379-0.554c-0.174-0.136-0.378-0.232-0.611-0.287c-0.233-0.054-0.464-0.082-0.69-0.082h-4.935
						L288.548,45.783z"/>
					<path style="fill:#FFFFFF;" d="M300.737,46.624c0.107-0.507,0.261-1.049,0.461-1.631c0.199-0.581,0.473-1.159,0.819-1.733
						c0.346-0.574,0.776-1.124,1.289-1.651c0.512-0.526,1.139-0.991,1.876-1.394c0.74-0.403,1.603-0.724,2.589-0.964
						c0.987-0.239,2.119-0.359,3.398-0.359c1.278,0,2.361,0.12,3.247,0.359c0.886,0.24,1.62,0.56,2.198,0.964
						c0.581,0.403,1.023,0.868,1.33,1.394c0.305,0.527,0.516,1.077,0.629,1.651c0.114,0.574,0.151,1.152,0.12,1.733
						c-0.034,0.581-0.102,1.124-0.211,1.631c-0.105,0.505-0.259,1.049-0.459,1.63c-0.199,0.583-0.473,1.16-0.819,1.733
						c-0.346,0.575-0.778,1.125-1.3,1.651c-0.52,0.527-1.149,0.992-1.888,1.395c-0.74,0.404-1.603,0.724-2.589,0.963
						c-0.986,0.239-2.117,0.36-3.396,0.36c-1.279,0-2.363-0.121-3.249-0.36c-0.885-0.239-1.614-0.559-2.186-0.963
						c-0.573-0.403-1.015-0.868-1.32-1.395c-0.307-0.526-0.516-1.076-0.629-1.651c-0.114-0.573-0.153-1.15-0.12-1.733
						C300.559,47.673,300.629,47.129,300.737,46.624z M304.853,46.624c-0.119,0.574-0.155,1.151-0.109,1.732
						c0.046,0.582,0.209,1.112,0.49,1.589c0.279,0.479,0.691,0.869,1.239,1.169c0.545,0.301,1.259,0.452,2.137,0.452
						c0.881,0,1.651-0.15,2.319-0.452c0.666-0.3,1.237-0.69,1.709-1.169c0.473-0.478,0.85-1.008,1.13-1.589
						c0.279-0.58,0.479-1.158,0.599-1.732c0.118-0.575,0.155-1.152,0.11-1.733c-0.046-0.581-0.21-1.111-0.49-1.59
						c-0.281-0.478-0.694-0.868-1.241-1.17c-0.547-0.3-1.259-0.451-2.137-0.451c-0.88,0-1.651,0.151-2.319,0.451
						c-0.665,0.301-1.237,0.691-1.708,1.17c-0.473,0.479-0.851,1.009-1.13,1.59C305.173,45.472,304.973,46.049,304.853,46.624z"/>
					<path style="fill:#FFFFFF;" d="M320.26,46.684h7.136l-0.562,2.79h-7.131L320.26,46.684z"/>
					<path style="fill:#FFFFFF;" d="M340.284,43.547c0.04-0.479-0.03-0.858-0.209-1.139c-0.181-0.279-0.424-0.492-0.728-0.636
						c-0.309-0.144-0.658-0.236-1.052-0.277c-0.392-0.041-0.78-0.062-1.168-0.062c-0.797,0-1.466,0.165-2.007,0.493
						c-0.539,0.327-0.863,0.738-0.971,1.23c-0.079,0.396,0.008,0.705,0.261,0.923c0.251,0.219,0.619,0.369,1.098,0.452l4.697,0.8
						c0.627,0.11,1.198,0.26,1.718,0.451c0.521,0.192,0.95,0.444,1.29,0.759c0.338,0.314,0.579,0.707,0.717,1.179
						c0.141,0.472,0.146,1.043,0.012,1.712c-0.133,0.684-0.383,1.322-0.749,1.918c-0.368,0.595-0.884,1.114-1.549,1.559
						c-0.668,0.445-1.501,0.796-2.507,1.056c-1.005,0.26-2.21,0.39-3.607,0.39c-0.573,0-1.166-0.017-1.779-0.051
						c-0.612-0.035-1.206-0.113-1.779-0.236c-0.571-0.123-1.102-0.294-1.589-0.512c-0.486-0.219-0.893-0.516-1.218-0.892
						c-0.327-0.377-0.555-0.834-0.68-1.374c-0.126-0.541-0.117-1.193,0.031-1.959h4.357c-0.094,0.506-0.057,0.912,0.109,1.22
						c0.168,0.308,0.41,0.547,0.731,0.718c0.318,0.171,0.687,0.283,1.108,0.337c0.421,0.055,0.838,0.082,1.25,0.082
						c0.919,0,1.688-0.14,2.308-0.42c0.62-0.281,0.997-0.75,1.13-1.405c0.052-0.288,0.043-0.523-0.031-0.708
						c-0.075-0.184-0.2-0.338-0.379-0.461c-0.179-0.123-0.41-0.222-0.69-0.297c-0.279-0.076-0.607-0.147-0.98-0.215l-3.417-0.554
						c-0.597-0.096-1.174-0.226-1.727-0.39c-0.553-0.164-1.028-0.399-1.43-0.708c-0.399-0.308-0.686-0.703-0.858-1.189
						c-0.173-0.485-0.179-1.104-0.02-1.856c0.331-1.627,1.188-2.799,2.568-3.517c1.378-0.718,3.188-1.077,5.425-1.077
						c0.492,0,1.008,0.02,1.548,0.062c0.539,0.041,1.068,0.117,1.59,0.225c0.518,0.109,1.012,0.27,1.478,0.481
						c0.468,0.213,0.863,0.493,1.189,0.842c0.327,0.348,0.567,0.772,0.721,1.271c0.151,0.499,0.181,1.091,0.088,1.774
						C344.581,43.547,340.284,43.547,340.284,43.547z"/>
					<path style="fill:#FFFFFF;" d="M347.777,39.303h3.877l-1.119,5.496h8.033l1.118-5.496h3.879l-2.958,14.642h-3.878l1.279-6.357
						h-8.034l-1.279,6.357h-3.877L347.777,39.303z"/>
					<path style="fill:#FFFFFF;" d="M364.005,46.624c0.107-0.507,0.259-1.049,0.458-1.631c0.202-0.581,0.473-1.159,0.821-1.733
						c0.346-0.574,0.774-1.124,1.287-1.651c0.514-0.526,1.141-0.991,1.88-1.394c0.738-0.403,1.599-0.724,2.585-0.964
						c0.989-0.239,2.121-0.359,3.4-0.359c1.278,0,2.361,0.12,3.247,0.359c0.886,0.24,1.62,0.56,2.198,0.964
						c0.581,0.403,1.023,0.868,1.33,1.394c0.305,0.527,0.516,1.077,0.627,1.651c0.115,0.574,0.154,1.152,0.122,1.733
						c-0.033,0.581-0.104,1.124-0.211,1.631c-0.105,0.505-0.259,1.049-0.458,1.63c-0.202,0.583-0.473,1.16-0.819,1.733
						c-0.348,0.575-0.779,1.125-1.299,1.651c-0.52,0.527-1.149,0.992-1.89,1.395c-0.738,0.404-1.601,0.724-2.587,0.963
						c-0.986,0.239-2.117,0.36-3.396,0.36c-1.279,0-2.363-0.121-3.249-0.36c-0.885-0.239-1.616-0.559-2.187-0.963
						c-0.573-0.403-1.013-0.868-1.32-1.395c-0.305-0.526-0.516-1.076-0.627-1.651c-0.114-0.573-0.153-1.15-0.122-1.733
						C363.827,47.673,363.897,47.129,364.005,46.624z M368.121,46.624c-0.119,0.574-0.155,1.151-0.109,1.732
						c0.046,0.582,0.209,1.112,0.49,1.589c0.279,0.479,0.691,0.869,1.239,1.169c0.543,0.301,1.259,0.452,2.137,0.452
						c0.88,0,1.651-0.15,2.319-0.452c0.664-0.3,1.235-0.69,1.707-1.169c0.473-0.478,0.853-1.008,1.132-1.589
						c0.279-0.58,0.479-1.158,0.599-1.732c0.118-0.575,0.155-1.152,0.11-1.733c-0.048-0.581-0.211-1.111-0.49-1.59
						c-0.282-0.478-0.694-0.868-1.241-1.17c-0.547-0.3-1.259-0.451-2.139-0.451c-0.879,0-1.649,0.151-2.317,0.451
						c-0.665,0.301-1.237,0.691-1.708,1.17c-0.472,0.479-0.849,1.009-1.13,1.59C368.44,45.472,368.241,46.049,368.121,46.624z"/>
					<path style="fill:#FFFFFF;" d="M385.146,39.303h9.593c1.013,0,1.814,0.14,2.409,0.42c0.591,0.281,1.031,0.635,1.316,1.066
						c0.288,0.431,0.451,0.909,0.49,1.436c0.04,0.527,0.014,1.035-0.08,1.528c-0.318,1.572-0.964,2.792-1.929,3.66
						c-0.965,0.869-2.234,1.303-3.807,1.303h-6.015l-1.059,5.229h-3.876L385.146,39.303z M387.662,46.049h4.158
						c0.292,0,0.597-0.013,0.908-0.04c0.314-0.029,0.606-0.104,0.88-0.226c0.273-0.123,0.516-0.32,0.73-0.595
						c0.213-0.273,0.374-0.657,0.479-1.149c0.094-0.478,0.104-0.854,0.032-1.128c-0.074-0.273-0.2-0.482-0.379-0.625
						c-0.181-0.144-0.401-0.232-0.662-0.267c-0.259-0.034-0.528-0.051-0.808-0.051h-4.517L387.662,46.049z"/>
				</g>
			</g>
		</g>
	</g>
	<g>
		<g>
			<g>
				<polyline style="fill:#44C8F5;" points="52.639,21.757 0,21.757 0,70.304 52.639,21.757 				"/>
				<polyline style="fill:#180F0E;" points="26.311,21.757 0,21.757 0,46.041 26.311,21.757 				"/>
				<polyline style="fill:#00A1E4;" points="131.401,59.758 138.26,32.286 126.127,32.286 119.258,59.758 131.401,59.758 				"/>
				<polyline style="fill:#00A1E4;" points="98.4,48.214 95.62,48.214 100.108,40.281 101.576,48.214 98.4,48.214 98.4,55.175 
					102.833,55.175 103.67,59.758 115.512,59.758 110.477,32.286 96.678,32.286 81.065,59.758 89.1,59.758 91.688,55.175 
					98.4,55.175 98.4,48.214 				"/>
				<polyline style="fill:#00A1E4;" points="186.844,59.758 193.704,32.286 181.56,32.286 174.716,59.758 186.844,59.758 				"/>
				<polyline style="fill:#00A1E4;" points="151.048,50.279 148.674,59.758 137.078,59.758 143.923,32.286 155.565,32.286 
					153.294,41.286 163.693,32.286 176.137,32.286 160.88,45.379 171.284,59.758 157.25,59.758 151.048,50.279 				"/>
				<path style="fill:#00A1E4;" d="M60.828,53.695h-1.977l3.79-14.813h3.903c1.398,0.012,5.435,0.368,4.996,5.887
					c0,0-0.78,8.925-8.389,8.925L60.828,53.695v6.053l5.97,0.01c8.397,0,16.662-6.247,16.662-15.828
					c0-11.274-12.529-11.626-12.529-11.626l-3.151-0.004H52.594l-6.838,27.446h15.072L60.828,53.695"/>
				<polyline style="fill:#00A1E4;" points="192.899,59.758 199.753,32.286 213.254,32.286 218.641,48.471 222.686,32.286 
					231.086,32.286 224.224,59.758 210.791,59.758 205.375,43.448 201.287,59.758 192.899,59.758 				"/>
			</g>
		</g>
	</g>
</g>
</svg>
