<?xml version="1.0" encoding="utf-8"?>
<!-- Generator: Adobe Illustrator 16.0.0, SVG Export Plug-In . SVG Version: 6.00 Build 0)  -->
<!DOCTYPE svg PUBLIC "-//W3C//DTD SVG 1.1//EN" "http://www.w3.org/Graphics/SVG/1.1/DTD/svg11.dtd">
<svg version="1.1" id="Layer_1" xmlns="http://www.w3.org/2000/svg" xmlns:xlink="http://www.w3.org/1999/xlink" x="0px" y="0px"
	 width="718.128px" height="385.256px" viewBox="0 0 718.128 385.256" enable-background="new 0 0 718.128 385.256"
	 xml:space="preserve">
<g>
	<defs>
		<rect id="SVGID_1_" x="-61.025" y="-113.077" width="841.891" height="595.276"/>
	</defs>
	<clipPath id="SVGID_2_">
		<use xlink:href="#SVGID_1_"  overflow="visible"/>
	</clipPath>
	<path clip-path="url(#SVGID_2_)" d="M540.063,291.785h28.16l-11.877-28.07l-42.051-98.392c-0.234-0.561-0.604-1.446-1.186-2.842
		c-2.215-5.302-6.213-9.887-14.451-9.97v-0.015c-0.037,0-0.068,0.007-0.107,0.008c-0.037-0.001-0.066-0.008-0.105-0.008v0.015
		c-8.238,0.083-12.234,4.668-14.449,9.97c-0.582,1.396-0.953,2.281-1.188,2.842l-42.051,98.392l-11.877,28.07l27.475-0.148
		l42.195-102.204L540.063,291.785z M514.385,165.538c-0.025-0.063-0.057-0.136-0.088-0.212
		C514.301,165.334,514.336,165.422,514.385,165.538 M482.719,165.538c0.049-0.116,0.086-0.204,0.088-0.212
		C482.775,165.402,482.746,165.475,482.719,165.538"/>
	<path clip-path="url(#SVGID_2_)" fill="#00AEEF" d="M257.226,152.496c0,0,23.388,3.375,23.388,15.678v12.303h-23.388V152.496z"/>
	<polygon clip-path="url(#SVGID_2_)" points="325.631,327.578 311.488,327.578 311.488,316.248 307.789,316.248 307.789,343.531 
		311.488,343.531 311.488,331.044 325.631,331.044 325.631,343.531 329.33,343.531 329.33,316.248 325.631,316.248 	"/>
	<path clip-path="url(#SVGID_2_)" d="M359.099,319.677c-1.247-1.285-2.742-2.293-4.488-3.025c-1.748-0.732-3.661-1.098-5.742-1.098
		c-2.082,0-3.995,0.365-5.743,1.098c-1.746,0.732-3.242,1.74-4.488,3.025c-1.248,1.285-2.222,2.799-2.93,4.547
		c-0.706,1.748-1.061,3.637-1.061,5.664c0,2.029,0.354,3.918,1.061,5.666c0.708,1.746,1.682,3.264,2.93,4.547
		c1.246,1.285,2.742,2.293,4.488,3.025c1.748,0.732,3.661,1.098,5.743,1.098c2.081,0,3.994-0.365,5.742-1.098
		c1.746-0.732,3.241-1.74,4.488-3.025c1.245-1.283,2.222-2.801,2.93-4.547c0.706-1.748,1.059-3.637,1.059-5.666
		c0-2.027-0.353-3.916-1.059-5.664C361.32,322.476,360.344,320.962,359.099,319.677 M358.426,334.109
		c-0.49,1.322-1.183,2.473-2.082,3.447c-0.9,0.979-1.979,1.754-3.237,2.332s-2.673,0.867-4.238,0.867
		c-1.567,0-2.981-0.289-4.239-0.867c-1.26-0.578-2.337-1.354-3.236-2.332c-0.9-0.975-1.594-2.125-2.082-3.447
		s-0.731-2.729-0.731-4.221c0-1.488,0.243-2.895,0.731-4.219c0.488-1.322,1.182-2.471,2.082-3.449
		c0.899-0.975,1.977-1.752,3.236-2.332c1.258-0.578,2.672-0.865,4.239-0.865c1.565,0,2.979,0.287,4.238,0.865
		c1.259,0.58,2.337,1.357,3.237,2.332c0.899,0.979,1.592,2.127,2.082,3.449c0.486,1.324,0.73,2.73,0.73,4.219
		C359.156,331.38,358.912,332.787,358.426,334.109"/>
	<polygon clip-path="url(#SVGID_2_)" points="382.47,336.902 382.315,336.902 373.645,316.248 368.136,316.248 368.136,343.531 
		371.835,343.531 371.835,321.103 371.912,321.103 381.121,343.531 383.588,343.531 392.798,321.103 392.875,321.103 
		392.875,343.531 396.575,343.531 396.575,316.248 391.063,316.248 	"/>
	<polygon clip-path="url(#SVGID_2_)" points="407.017,331.314 419.964,331.314 419.964,327.847 407.017,327.847 407.017,319.714 
		420.929,319.714 420.929,316.248 403.318,316.248 403.318,343.531 421.623,343.531 421.623,340.062 407.017,340.062 	"/>
	<rect x="436.958" y="325.265" clip-path="url(#SVGID_2_)" width="3.467" height="18.266"/>
	<path clip-path="url(#SVGID_2_)" d="M438.693,316.171c-0.695,0-1.291,0.25-1.793,0.75c-0.5,0.502-0.75,1.1-0.75,1.793
		s0.25,1.291,0.75,1.793c0.502,0.5,1.098,0.75,1.793,0.75c0.693,0,1.292-0.25,1.792-0.75c0.502-0.502,0.752-1.1,0.752-1.793
		s-0.25-1.291-0.752-1.793C439.984,316.421,439.386,316.171,438.693,316.171"/>
	<rect x="444.668" y="332.585" clip-path="url(#SVGID_2_)" width="9.479" height="3.238"/>
	<path clip-path="url(#SVGID_2_)" d="M475.531,339.792c-1.182,0.643-2.555,0.963-4.123,0.963c-1.594,0-3.018-0.281-4.277-0.846
		c-1.26-0.566-2.326-1.336-3.197-2.314c-0.875-0.975-1.541-2.105-2.004-3.391c-0.463-1.283-0.693-2.645-0.693-4.084
		c0-1.541,0.244-2.986,0.73-4.336c0.488-1.348,1.176-2.523,2.063-3.525s1.951-1.791,3.199-2.369c1.244-0.578,2.639-0.869,4.18-0.869
		c1.26,0,2.48,0.271,3.662,0.811s2.158,1.311,2.928,2.311l3.082-2.35c-1.104-1.439-2.521-2.504-4.258-3.199
		c-1.734-0.693-3.5-1.039-5.299-1.039c-2.105,0-4.033,0.359-5.779,1.078c-1.746,0.721-3.242,1.729-4.49,3.025
		c-1.246,1.299-2.215,2.84-2.908,4.625s-1.041,3.73-1.041,5.838c0,1.721,0.32,3.424,0.963,5.105
		c0.643,1.684,1.572,3.193,2.795,4.529c1.219,1.336,2.697,2.414,4.432,3.236c1.734,0.82,3.68,1.232,5.838,1.232
		c1.566,0,2.947-0.199,4.143-0.598c1.193-0.398,2.215-0.859,3.064-1.387c0.846-0.525,1.527-1.053,2.041-1.58
		c0.516-0.525,0.873-0.932,1.08-1.213l-3.121-2.352C477.715,338.251,476.713,339.15,475.531,339.792"/>
	<polygon clip-path="url(#SVGID_2_)" points="489.828,331.314 502.775,331.314 502.775,327.847 489.828,327.847 489.828,319.714 
		503.74,319.714 503.74,316.248 486.129,316.248 486.129,343.531 504.434,343.531 504.434,340.062 489.828,340.062 	"/>
	<polygon clip-path="url(#SVGID_2_)" points="529.637,338.675 529.559,338.675 514.529,316.248 509.676,316.248 509.676,343.531 
		513.375,343.531 513.375,321.103 513.451,321.103 528.633,343.531 533.336,343.531 533.336,316.248 529.637,316.248 	"/>
	<polygon clip-path="url(#SVGID_2_)" points="537.266,319.714 546.051,319.714 546.051,343.531 549.75,343.531 549.75,319.714 
		558.539,319.714 558.539,316.248 537.266,316.248 	"/>
	<path clip-path="url(#SVGID_2_)" d="M576.9,330.255c0.834-0.449,1.541-1.002,2.119-1.656c0.578-0.656,1.021-1.387,1.33-2.197
		c0.309-0.809,0.463-1.65,0.463-2.523c0-0.85-0.131-1.729-0.387-2.641c-0.258-0.912-0.711-1.734-1.367-2.467
		c-0.654-0.732-1.549-1.334-2.678-1.811c-1.133-0.477-2.57-0.713-4.316-0.713h-9.596v27.283h3.699v-12.023h4.123l6.938,12.023h4.625
		l-7.748-12.447C575.135,330.982,576.064,330.705,576.9,330.255 M571.023,328.271h-4.855v-8.787h4.855
		c0.719,0,1.432,0.059,2.139,0.174s1.334,0.328,1.889,0.637c0.551,0.309,0.996,0.752,1.33,1.328c0.332,0.578,0.5,1.33,0.5,2.256
		c0,0.924-0.168,1.676-0.5,2.254c-0.334,0.578-0.779,1.02-1.33,1.33c-0.555,0.307-1.182,0.52-1.889,0.635
		S571.742,328.271,571.023,328.271"/>
	<path clip-path="url(#SVGID_2_)" d="M594.568,316.248l-12.023,27.283h4.316l2.697-6.744h12.986l2.736,6.744h4.316l-11.676-27.283
		H594.568z M590.869,333.55l5.164-12.525h0.076l5.088,12.525H590.869z"/>
	<polygon clip-path="url(#SVGID_2_)" points="616.842,316.248 613.141,316.248 613.141,343.531 629.363,343.531 629.363,340.062 
		616.842,340.062 	"/>
	<path clip-path="url(#SVGID_2_)" d="M652.41,316.248l-12.025,27.283h4.318l2.697-6.744h12.984l2.736,6.744h4.318l-11.678-27.283
		H652.41z M648.709,333.55l5.164-12.525h0.078l5.086,12.525H648.709z"/>
	<path clip-path="url(#SVGID_2_)" d="M690.521,337.095c-0.824,1.156-1.826,2.055-3.008,2.697c-1.18,0.643-2.555,0.963-4.121,0.963
		c-1.594,0-3.021-0.281-4.279-0.846c-1.258-0.566-2.326-1.336-3.197-2.314c-0.873-0.975-1.541-2.105-2.004-3.391
		c-0.463-1.283-0.693-2.645-0.693-4.084c0-1.541,0.244-2.986,0.73-4.336c0.488-1.348,1.176-2.523,2.063-3.525
		s1.953-1.791,3.199-2.369s2.641-0.869,4.182-0.869c1.258,0,2.479,0.271,3.66,0.811s2.158,1.311,2.928,2.311l3.084-2.35
		c-1.104-1.439-2.523-2.504-4.26-3.199c-1.732-0.693-3.5-1.039-5.297-1.039c-2.107,0-4.033,0.359-5.781,1.078
		c-1.746,0.721-3.242,1.729-4.488,3.025c-1.248,1.299-2.217,2.84-2.912,4.625c-0.691,1.785-1.039,3.73-1.039,5.838
		c0,1.721,0.322,3.424,0.965,5.105c0.643,1.684,1.572,3.193,2.795,4.529c1.217,1.336,2.695,2.414,4.43,3.236
		c1.734,0.82,3.68,1.232,5.838,1.232c1.566,0,2.947-0.199,4.143-0.598s2.217-0.859,3.064-1.387c0.846-0.525,1.527-1.053,2.041-1.58
		c0.514-0.525,0.875-0.932,1.08-1.213L690.521,337.095z"/>
	<path clip-path="url(#SVGID_2_)" d="M231.931,293.486V181.868v-0.966v-28.406c0,0-24.551,3.543-24.551,16.457v11.949h-0.002v27.53
		H143.84v-26.563v-8.817v-4.098c0-12.914-24.551-16.457-24.551-16.457v20.555v8.817v111.618h24.551v-61.645h63.538v61.645H231.931z"
		/>
	<path clip-path="url(#SVGID_2_)" d="M84.363,326.08h-4.657h-1.125H43.919v-33.016h34.662h5.782c3.297,0,5.969-2.48,5.969-5.543
		V157.394c0-3.061-2.672-5.543-5.969-5.543H43.919v-7.57L268.345,42.595l200.061,90.638c0.814,0.369,1.709,0.561,2.617,0.561h13.184
		c2.779,0,5.191-1.781,5.816-4.295c0.625-2.515-0.701-5.098-3.199-6.229l-99.054-44.878c-0.315-0.224-0.655-0.419-1.018-0.583
		L270.985,25.458c-0.825-0.373-1.719-0.559-2.613-0.559c-0.206,0-0.412,0.01-0.618,0.029c-0.706,0.061-1.4,0.237-2.049,0.53
		l-74.576,33.697c-0.361,0.164-0.701,0.359-1.015,0.583L31.173,131.746l-1.623,0.736c-2.051,0.928-3.352,2.862-3.352,4.981v25.3
		c0,3.061,2.672,5.543,5.969,5.543h40.445v108.305H37.949h-5.782c-3.297,0-5.969,2.48-5.969,5.543v5.367v44.102v2.662v2.707
		c0,3.061,2.672,5.543,5.969,5.543h46.414h1.125h200.907V326.08H121.755H84.363z"/>
	<polygon clip-path="url(#SVGID_2_)" points="257.226,273.476 257.226,293.486 280.613,293.486 280.613,224.402 280.613,197.533 
		257.226,197.533 	"/>
	<path clip-path="url(#SVGID_2_)" d="M688.449,274.753l1.922-2.502c0,0-17.416-13.391-29.834-5.631
		c-0.914,0.57-3.176,2.078-5.566,3.17c-5.395,2.461-11.037,3.711-16.77,3.711c-7.117,0-13.617-1.342-19.32-3.988
		c-5.725-2.656-10.689-6.334-14.76-10.934c-4.09-4.625-7.314-10.139-9.578-16.395c-2.15-5.946-3.262-12.406-3.379-19.194
		c0.117-6.788,1.229-13.248,3.379-19.193c2.264-6.257,5.488-11.771,9.578-16.396c4.07-4.599,9.035-8.277,14.76-10.933
		c5.703-2.647,12.203-3.989,19.32-3.989c5.732,0,11.375,1.249,16.77,3.711c2.391,1.092,4.652,2.599,5.566,3.169
		c12.418,7.76,29.834-5.631,29.834-5.631l-1.922-2.501c-5.779-7.522-13.297-13.173-22.346-16.795
		c-8.898-3.558-18.094-5.361-27.33-5.361c-10.764,0-20.768,1.872-29.736,5.564c-8.988,3.7-16.805,8.97-23.234,15.664
		c-6.412,6.676-11.469,14.707-15.027,23.871c-3.424,8.814-5.205,18.51-5.328,28.82c0.123,10.312,1.904,20.006,5.328,28.822
		c3.559,9.164,8.615,17.193,15.027,23.869c6.43,6.693,14.246,11.965,23.234,15.666c8.969,3.689,18.973,5.563,29.736,5.563
		c9.236,0,18.432-1.803,27.33-5.361C675.152,287.927,682.67,282.275,688.449,274.753"/>
	<path clip-path="url(#SVGID_2_)" d="M336.234,187.401c4.07-4.599,9.035-8.277,14.761-10.933c5.703-2.647,12.202-3.988,19.319-3.988
		c5.732,0,11.376,1.248,16.77,3.71c2.393,1.092,4.652,2.599,5.567,3.17c12.418,7.759,29.834-5.632,29.834-5.632l-1.924-2.501
		c-5.777-7.522-13.295-13.172-22.346-16.795c-8.896-3.558-18.092-5.361-27.33-5.361c-10.762,0-20.766,1.872-29.735,5.564
		c-8.987,3.7-16.805,8.97-23.234,15.664c-6.413,6.676-11.469,14.707-15.027,23.87c-3.425,8.815-5.205,18.511-5.328,28.821
		c0.123,10.312,1.903,20.006,5.328,28.822c3.559,9.164,8.614,17.193,15.027,23.869c6.43,6.693,14.247,11.965,23.234,15.666
		c8.97,3.689,18.974,5.563,29.735,5.563c9.238,0,18.434-1.803,27.33-5.361c9.051-3.621,16.569-9.273,22.346-16.795l1.924-2.502
		c0,0-17.416-13.389-29.834-5.631c-0.915,0.572-3.175,2.078-5.567,3.17c-5.394,2.461-11.037,3.711-16.77,3.711
		c-7.117,0-13.616-1.342-19.319-3.988c-5.726-2.656-10.69-6.334-14.761-10.934c-4.09-4.625-7.314-10.139-9.577-16.395
		c-2.151-5.946-3.263-12.406-3.38-19.194c0.117-6.788,1.229-13.248,3.38-19.194C328.92,197.541,332.145,192.025,336.234,187.401"/>
</g>
</svg>
